<?xml version="1.0" encoding="utf-8"?>
<!-- Generator: Adobe Illustrator 22.0.1, SVG Export Plug-In . SVG Version: 6.00 Build 0)  -->
<svg version="1.1" xmlns="http://www.w3.org/2000/svg" xmlns:xlink="http://www.w3.org/1999/xlink" x="0px" y="0px"
	 viewBox="0 0 800 800" style="enable-background:new 0 0 800 800;" xml:space="preserve">
<style type="text/css">
	.st0{fill:none;stroke:#57BC90;stroke-width:11;stroke-miterlimit:10;}
	.st1{fill:#E6E6E6;stroke:#333333;stroke-width:11;stroke-miterlimit:10;}
	.st2{fill:#999999;}
	.st3{fill:#FFFFFF;}
	.st4{fill:#57BC90;}
	.st5{fill:none;stroke:#57BC90;stroke-width:10;stroke-miterlimit:10;}
</style>
<g id="Screen">
	<path class="st0" d="M759.5,610.5h-720c-6.6,0-12-5.4-12-12v-430c0-6.6,5.4-12,12-12h720c6.6,0,12,5.4,12,12v430
		C771.5,605.1,766.1,610.5,759.5,610.5z"/>
</g>
<g id="Screen_x5F_2">
	<path class="st1" d="M716.5,586.5h-631c-6.6,0-12-5.4-12-12v-371c0-6.6,5.4-12,12-12h631c6.6,0,12,5.4,12,12v371
		C728.5,581.1,723.1,586.5,716.5,586.5z"/>
</g>
<g id="Form_x5F_backdrop">
	<g>
		<rect x="203" y="227" class="st2" width="422" height="355"/>
	</g>
</g>
<g id="Form">
	<g>
		<rect x="189" y="216" class="st3" width="422" height="364"/>
	</g>
</g>
<g id="Form_x5F_lines">
	<g>
		<path class="st4" d="M259.5,301.5c-18.7,0-34-15.3-34-34s15.3-34,34-34h292c18.7,0,34,15.3,34,34s-15.3,34-34,34H259.5z"/>
		<path class="st3" d="M551.5,234c18.5,0,33.5,15,33.5,33.5c0,18.5-15,33.5-33.5,33.5h-292c-18.5,0-33.5-15-33.5-33.5
			c0-18.5,15-33.5,33.5-33.5H551.5 M551.5,233h-292c-19,0-34.5,15.5-34.5,34.5v0c0,19,15.5,34.5,34.5,34.5h292
			c19,0,34.5-15.5,34.5-34.5v0C586,248.5,570.5,233,551.5,233L551.5,233z"/>
	</g>
	<g>
		<path class="st4" d="M246.5,356.5c-11.6,0-21-9.4-21-21s9.4-21,21-21h318c11.6,0,21,9.4,21,21s-9.4,21-21,21H246.5z"/>
		<path class="st3" d="M564.5,315c11.3,0,20.5,9.2,20.5,20.5c0,11.3-9.2,20.5-20.5,20.5h-318c-11.3,0-20.5-9.2-20.5-20.5
			c0-11.3,9.2-20.5,20.5-20.5H564.5 M564.5,314h-318c-11.8,0-21.5,9.7-21.5,21.5v0c0,11.8,9.7,21.5,21.5,21.5h318
			c11.8,0,21.5-9.7,21.5-21.5v0C586,323.7,576.3,314,564.5,314L564.5,314z"/>
	</g>
	<g>
		<path class="st4" d="M249,399.5c-6.3,0-11.5-5.2-11.5-11.5v-2.5c0-6.3,5.2-11.5,11.5-11.5h3c6.3,0,11.5,5.2,11.5,11.5v2.5
			c0,6.3-5.2,11.5-11.5,11.5H249z"/>
		<path class="st3" d="M252,374.5c6.1,0,11,4.9,11,11v2.5c0,6.1-4.9,11-11,11h-3c-6.1,0-11-4.9-11-11v-2.5c0-6.1,4.9-11,11-11H252
			 M252,373.5h-3c-6.6,0-12,5.4-12,12v2.5c0,6.6,5.4,12,12,12h3c6.6,0,12-5.4,12-12v-2.5C264,378.9,258.6,373.5,252,373.5L252,373.5
			z"/>
	</g>
	<g>
		<path class="st4" d="M249,435.5c-6.3,0-11.5-5.2-11.5-11.5v-2.5c0-6.3,5.2-11.5,11.5-11.5h3c6.3,0,11.5,5.2,11.5,11.5v2.5
			c0,6.3-5.2,11.5-11.5,11.5H249z"/>
		<path class="st3" d="M252,410.5c6.1,0,11,4.9,11,11v2.5c0,6.1-4.9,11-11,11h-3c-6.1,0-11-4.9-11-11v-2.5c0-6.1,4.9-11,11-11H252
			 M252,409.5h-3c-6.6,0-12,5.4-12,12v2.5c0,6.6,5.4,12,12,12h3c6.6,0,12-5.4,12-12v-2.5C264,414.9,258.6,409.5,252,409.5L252,409.5
			z"/>
	</g>
	<g>
		<path class="st4" d="M249,471.5c-6.3,0-11.5-5.2-11.5-11.5v-2.5c0-6.3,5.2-11.5,11.5-11.5h3c6.3,0,11.5,5.2,11.5,11.5v2.5
			c0,6.3-5.2,11.5-11.5,11.5H249z"/>
		<path class="st3" d="M252,446.5c6.1,0,11,4.9,11,11v2.5c0,6.1-4.9,11-11,11h-3c-6.1,0-11-4.9-11-11v-2.5c0-6.1,4.9-11,11-11H252
			 M252,445.5h-3c-6.6,0-12,5.4-12,12v2.5c0,6.6,5.4,12,12,12h3c6.6,0,12-5.4,12-12v-2.5C264,450.9,258.6,445.5,252,445.5L252,445.5
			z"/>
	</g>
	<g>
		<path class="st4" d="M234,558.5c-6.3,0-11.5-5.2-11.5-11.5v-40c0-6.3,5.2-11.5,11.5-11.5h337c6.3,0,11.5,5.2,11.5,11.5v40
			c0,6.3-5.2,11.5-11.5,11.5H234z"/>
		<path class="st3" d="M571,496c6.1,0,11,4.9,11,11v40c0,6.1-4.9,11-11,11H234c-6.1,0-11-4.9-11-11v-40c0-6.1,4.9-11,11-11H571
			 M571,495H234c-6.6,0-12,5.4-12,12v40c0,6.6,5.4,12,12,12h337c6.6,0,12-5.4,12-12v-40C583,500.4,577.6,495,571,495L571,495z"/>
	</g>
	<g>
		<path class="st4" d="M287,395.5c-4.7,0-8.5-3.8-8.5-8.5s3.8-8.5,8.5-8.5h268c4.7,0,8.5,3.8,8.5,8.5s-3.8,8.5-8.5,8.5H287z"/>
		<path class="st3" d="M555,379c4.4,0,8,3.6,8,8s-3.6,8-8,8H287c-4.4,0-8-3.6-8-8s3.6-8,8-8H555 M555,378H287c-5,0-9,4-9,9s4,9,9,9
			h268c5,0,9-4,9-9S560,378,555,378L555,378z"/>
	</g>
	<g>
		<path class="st4" d="M287,431.5c-4.7,0-8.5-3.8-8.5-8.5s3.8-8.5,8.5-8.5h268c4.7,0,8.5,3.8,8.5,8.5s-3.8,8.5-8.5,8.5H287z"/>
		<path class="st3" d="M555,415c4.4,0,8,3.6,8,8s-3.6,8-8,8H287c-4.4,0-8-3.6-8-8s3.6-8,8-8H555 M555,414H287c-5,0-9,4-9,9s4,9,9,9
			h268c5,0,9-4,9-9S560,414,555,414L555,414z"/>
	</g>
	<g>
		<path class="st4" d="M287,467.5c-4.7,0-8.5-3.8-8.5-8.5s3.8-8.5,8.5-8.5h268c4.7,0,8.5,3.8,8.5,8.5s-3.8,8.5-8.5,8.5H287z"/>
		<path class="st3" d="M555,451c4.4,0,8,3.6,8,8s-3.6,8-8,8H287c-4.4,0-8-3.6-8-8s3.6-8,8-8H555 M555,450H287c-5,0-9,4-9,9s4,9,9,9
			h268c5,0,9-4,9-9S560,450,555,450L555,450z"/>
	</g>
</g>
<g id="scrollbar_x5F_2">
	<path class="st4" d="M700,302L700,302c-6.6,0-12-5.4-12-12v-33c0-6.6,5.4-12,12-12l0,0c6.6,0,12,5.4,12,12v33
		C712,296.6,706.6,302,700,302z"/>
</g>
<g id="Screen_x5F_Border_coverup">
	<path class="st0" d="M716.5,586.5h-631c-6.6,0-12-5.4-12-12v-371c0-6.6,5.4-12,12-12h631c6.6,0,12,5.4,12,12v371
		C728.5,581.1,723.1,586.5,716.5,586.5z"/>
</g>
<g id="Stand_x5F_top">
	<rect x="353.5" y="611.5" class="st0" width="96" height="93"/>
</g>
<g id="Stand_x5F_Bottom">
	<path class="st5" d="M553.2,742H249.8c-6,0-10.8-4.8-10.8-10.8v-13.3c0-6,4.8-10.8,10.8-10.8h303.3c6,0,10.8,4.8,10.8,10.8v13.3
		C564,737.2,559.2,742,553.2,742z"/>
</g>
</svg>
