<?xml version="1.0" encoding="utf-8"?>
<!-- Generator: Adobe Illustrator 21.1.0, SVG Export Plug-In . SVG Version: 6.00 Build 0)  -->
<svg version="1.1" xmlns="http://www.w3.org/2000/svg" xmlns:xlink="http://www.w3.org/1999/xlink" x="0px" y="0px"
	 viewBox="0 0 800 800" style="enable-background:new 0 0 800 800;" xml:space="preserve">
<style type="text/css">
	.st0{fill:none;stroke:#57BC90;stroke-width:13;stroke-miterlimit:10;}
	.st1{fill:none;stroke:#57BC90;stroke-width:10;stroke-miterlimit:10;}
	.st2{fill:#FFFFFF;stroke:#015249;stroke-width:10;stroke-miterlimit:10;}
	.st3{fill:none;stroke:#015249;stroke-width:10;stroke-miterlimit:10;}
</style>
<g id="Globe">
	<g>
		<circle class="st0" cx="400" cy="400" r="381"/>
		<path class="st1" d="M301.6,764.1C189,720.4,147.4,530,144.2,414.5c-3.4-119.3,33-200.8,41.1-218.1
			C208.1,147.1,249.6,57.6,340.5,28c11-3.6,52.7-16.6,98.6-6C569.5,52.2,651.6,254.5,651,419.4c-0.6,157-76.2,315.6-162.5,346.6
			c-36.4,13.1-77.8,15-77.8,15S352.1,783.7,301.6,764.1z"/>
		<path class="st1" d="M392.9,22.9c3.4,251.7,6.8,503.4,10.3,755.1"/>
		<path class="st1" d="M58,228.6c22.3,4.6,54.8,10.9,94.2,16.8c110.6,16.5,281.4,40.5,478.7-5.5c24.2-5.7,57.7-14.4,97.1-27.9"/>
		<path class="st1" d="M21,363.5c26.1,10.1,61.4,22.5,103.8,33.9c89.5,24.1,302.3,68.5,550.4-1.2c30-8.4,66.7-20.3,107.9-37.1"/>
		<path class="st1" d="M38,531c24.7,9.2,58,20.5,98,30.8c84.6,21.9,285.7,62.3,520-1.1c28.4-7.7,63-18.4,101.9-33.7"/>
		<path class="st1" d="M128,670.3c18.6,7.4,43.6,16.6,73.7,25c63.5,17.8,214.6,50.4,390.8-0.9c21.3-6.2,47.4-14.9,76.6-27.3"/>
		<path class="st1" d="M161,98.9c27.5,4.6,56.1,8.5,85.8,11.5c141.4,14.2,268.6,3.5,375.3-16.4"/>
	</g>
	<path class="st1" d="M-58,198"/>
</g>
<g id="Layer_4">
	<rect x="95.4" y="300.8" class="st2" width="103.9" height="197.3"/>
	<rect x="615.1" y="299.1" class="st2" width="103.9" height="197.3"/>
</g>
<g id="Layer_7">
	<path class="st2" d="M261.8,495.5c86,49.1,147.2,85,168.2,100.4c3.4,2.5,16.7,12.5,33.5,11.5c4.5-0.3,14.3-0.9,20.3-8.8
		c6.7-9,3.1-20.6,2.6-22c1.2,0.5,14.7,5.8,25.5-1.8c8.3-5.8,9.8-15.4,10.6-20.3c1.6-9.8-1.2-17.6-2.6-21.1
		c0.9,0.1,16.2,1.5,24.7-9.7c6-8,4.5-18,3.5-24.7c-1-7-3.4-12.4-5.3-15.9c3.8,0,7.6,0,11.5,0c-3.8-60.8-7.6-121.6-11.5-182.3
		c-59.6-5-119.2-10-178.8-15c-19.8,2.4-33.8,6.4-43.2,9.7c-4.4,1.5-12.5,4.6-23.8,5.3c-10.1,0.6-15.1-1.2-17.6-0.9
		C269.2,301.2,260.5,343,261.8,495.5z"/>
</g>
<g id="Layer_5">
	<polygon class="st2" points="187,275.3 289.2,275.3 261,501.7 195.8,501.7 181.7,275.3 	"/>
	<polygon class="st2" points="546.4,275.3 648.5,275.3 620.3,501.7 555.2,501.7 541.1,275.3 	"/>
</g>
<g id="Layer_8">
	<line class="st3" x1="549" y1="488.5" x2="478.5" y2="454.1"/>
	<line class="st3" x1="521.1" y1="533.7" x2="451.8" y2="497"/>
	<line class="st3" x1="489.7" y1="578.5" x2="423.3" y2="536.7"/>
</g>
<g id="Layer_6">
	<path class="st2" d="M538.4,291.2c-9.4,1.6-23.6,3.2-40.5,0.9c-22.5-3.1-27.1-9.9-48.4-15.9c-39.7-11.1-72.9-1.5-86.3,2.6
		c-15.3,4.7-29.5,9.2-36.1,22c-4.7,9-0.4,12.3-4.4,32.6c-1.5,7.8-4.3,21.9-12.3,37.9c-6.6,13.1-12.2,18.4-9.7,23.8
		c2.9,6.4,14.3,6.9,17.6,7c16.6,0.8,29.1-8.8,39.6-16.7c4.4-3.3,17.8-14.1,28.2-32.6c2-3.5,3.4-6.6,4.4-8.8
		c5.7,19,15.7,30,21.1,35.2c16,15.2,34.9,19.3,52,22.9c14.9,3.2,27.6,3.7,36.1,3.5c16.1,8.2,32.3,16.4,48.4,24.7
		C544.9,383.9,541.7,337.5,538.4,291.2z"/>
</g>
<g id="Layer_10">
	<g>
		<path class="st2" d="M240.7,516.6c-6.5,7.8-7.9,18.6-3.5,27.3c4.1,8.1,12.4,12.9,20.3,13.2c9.9,0.4,16.4-5.9,17.6-7
			c21.4-22,42.9-44,64.3-66.1c6.1-8.5,6.8-19.3,1.8-27.3c-5.6-9-16-10.4-17.6-10.6c-9.9-1.1-17,4.2-18.5,5.3
			C283.6,473.2,262.1,494.9,240.7,516.6z"/>
		<path class="st2" d="M275.1,550.1c-4.6,8-4.2,17.7,0.9,24.7c6.3,8.5,18.6,11.4,29.1,6.2c21.4-20.6,42.9-41.1,64.3-61.7
			c0.7-0.9,7.5-10.7,3.5-22c-3.3-9.3-12.7-16.6-22.9-15.9c-8.3,0.6-13.6,6.4-15,7.9C315,509.6,295,529.9,275.1,550.1z"/>
		<path class="st2" d="M308.5,580.1c-0.4,1.4-3.6,11.7,2.6,21.1c4.6,6.9,13.2,11.7,22,10.6c5.6-0.7,9.6-3.7,11.5-5.3
			c18.5-18.5,37-37,55.5-55.5c1.3-2.2,3.9-7.3,3.5-14.1c-0.5-8.9-6.2-17.5-15-21.1c-8.6-3.6-16.5-0.8-18.5,0
			C349.6,537.2,329.1,558.6,308.5,580.1z"/>
		<path class="st2" d="M349.1,602.1c0.4,1.6,3.4,14.5,15.9,20.3c8.2,3.8,15.9,2.4,18.5,1.8c10.9-8.7,17.8-17.5,22-23.8
			c6.1-9.2,10-15.2,8.8-22.9c-1-6.5-5.8-15-14.1-16.7c-5.1-1.1-9.5,0.8-11.5,1.8C375.5,575.7,362.3,588.9,349.1,602.1z"/>
	</g>
</g>
</svg>
