<?xml version="1.0" encoding="utf-8"?>
<!-- Generator: Adobe Illustrator 22.0.1, SVG Export Plug-In . SVG Version: 6.00 Build 0)  -->
<svg version="1.1" id="Layer_1" xmlns="http://www.w3.org/2000/svg" xmlns:xlink="http://www.w3.org/1999/xlink" x="0px" y="0px"
	 viewBox="0 0 473 800" style="enable-background:new 0 0 473 800;" xml:space="preserve">
<style type="text/css">
	.st0{fill:none;stroke:#57BC90;stroke-width:14;stroke-miterlimit:10;}
</style>
<g id="Layer_2_1_">
	<ellipse class="st0" cx="248.1" cy="720.5" rx="154.5" ry="43.5"/>
</g>
<g id="Layer_3">
	<g>
		<g>
			<path class="st0" d="M169.3,543.2c-54.1-39.2-80.1-82.5-92.1-106.3C18,319,52.9,177.2,115.5,114.2c12-12,40.2-36.6,48.6-30.6
				c5.5,4-2.8,17.7-3,42c0,5.5,0.2,58.1,30,70.5c16.2,6.7,35.2-1,46.4-9.5c19.1-14.5,21.1-38.9,22.6-58c2.1-25.6-5.4-45.9-10.5-60
				c-10.9-30.2-23.7-42.3-21-45c5.8-5.9,79.9,37.4,134.2,109.8c26.6,35.4,105.6,140.3,70.9,262.2C410.6,476.8,350,523.3,324,540.8"
				/>
			<path class="st0" d="M247.9,676.6c19.2-84.7,19.8-156.6,16.7-206c-5.7-89.5-26.7-153.8-31.5-168c-15.8-47.1-34.9-84.7-50.5-111.7
				"/>
			<path class="st0" d="M266,511.1c-13.2-13.5-49-53.5-92-68.2c-43.2-14.8-80.5-12.1-99.2-9.4"/>
			<path class="st0" d="M246,355.5c8.7-19.7,26.6-53.3,61.4-83.8c42.3-37.1,86.9-49.7,108.6-54.3"/>
			<path class="st0" d="M263.4,577.2c11.6-26.5,32.5-87.9,90.1-127.3c27.3-18.6,53.7-29.2,74.4-35.4"/>
		</g>
		<polyline class="st0" points="325.2,538.5 244.9,692 165.7,538.5 		"/>
	</g>
</g>
</svg>
