<?xml version="1.0" encoding="utf-8"?>
<!-- Generator: Adobe Illustrator 21.1.0, SVG Export Plug-In . SVG Version: 6.00 Build 0)  -->
<svg version="1.1" xmlns="http://www.w3.org/2000/svg" xmlns:xlink="http://www.w3.org/1999/xlink" x="0px" y="0px"
	 viewBox="0 0 606 800" style="enable-background:new 0 0 606 800;" xml:space="preserve">
<style type="text/css">
	.st0{fill:#57BC90;}
</style>
<g id="Layer_3">
	<path class="st0" d="M458.2,786.5c2.1,1.8-133-110.5-133.5-204.6c-0.4-74.3,12.8-99.5,12.8-99.5c8-15.2,19.4-29.3,13.2-41.8
		c-6.6-13.3-30.7-20.3-40.2-13.2c-8.9,6.7,0.5,21.5,2,49.3c0.4,8,3.1,71.9-38.4,99.4c-7,4.7-21.4,12.3-45.5,12.9
		C305.1,654.9,381.6,720.7,458.2,786.5z"/>
</g>
<g id="Layer_4">
	<path class="st0" d="M345.8,424.1c-3.9,0.9-7.2-4.1-23.2-18.8c-20.2-18.5-36.1-33.1-41.3-30.5c-9.1,4.6,25.4,56.7,13.2,67
		c-21.8,18.3-187.2-93-222.3-204.3c-17.4-55.1-13.2-87-13.2-87c-0.9-30.2,2.7-41.8-4.6-62.9c-12.7-36.9-41.3-52.8-37-58.5
		c4.7-6.2,40.9,9,87,32.9c49.4,25.6,88.3,45.8,130.3,84.1c21.8,19.9,95.7,89,116.4,193.3C358.4,375.8,357,421.7,345.8,424.1z"/>
	<path class="st0" d="M385.7,429.7c-0.3-6.6-16-7.6-17.4-13.5c-2.4-10.6,40.2-40.6,84.6-35.5c31.1,3.5,30.8,20.6,84,40.3
		c32.8,12.1,54.8,13.7,55.4,22.2c0.6,8.9-23.1,16.9-35,20.9c-42.1,14.1-80.6,11.8-103.5,8.8c-42.1-5.6-82.3-20.3-81.4-29.8
		C373,437.7,385.9,435.8,385.7,429.7z"/>
</g>
<g id="Layer_5">
	<path class="st0" d="M367.9,367.8c-7.5-12.2,23.6-50.7,65.3-63.8c42.8-13.4,88.1,2.7,87.8,8.3c-0.1,4-22.8-1-49.9,12.3
		c-29.6,14.5-29.3,33.4-57.5,43.5C397.2,374.1,373,376.1,367.9,367.8z"/>
</g>
</svg>
