<?xml version="1.0" encoding="utf-8"?>
<!-- Generator: Adobe Illustrator 22.0.1, SVG Export Plug-In . SVG Version: 6.00 Build 0)  -->
<svg version="1.1" xmlns="http://www.w3.org/2000/svg" xmlns:xlink="http://www.w3.org/1999/xlink" x="0px" y="0px"
	 viewBox="0 0 1440 279.3" style="enable-background:new 0 0 1440 279.3;" xml:space="preserve">
<style type="text/css">
	.st0{fill:#E6E6E6;}
	.st1{fill:#FFFFFF;}
	.st2{opacity:0.64;}
	.st3{fill:#4D4D4D;}
	.st4{fill:#999999;}
	.st5{fill:#CCCCCC;}
	.st6{fill:#B3B3B3;}
	.st7{fill:none;stroke:#B3B3B3;stroke-width:11;stroke-miterlimit:10;}
	.st8{opacity:0.74;}
	.st9{fill:#666666;}
	.st10{fill:#808080;}
	.st11{fill:none;stroke:#CCCCCC;stroke-width:2;stroke-miterlimit:10;}
</style>
<g id="Layer_4">
	<g>
		<polygon class="st0" points="404.6,147.7 378.1,140.2 377.4,167.8 361.8,145 343.6,165.7 346.3,138.3 319.1,142.4 338.8,123.1 
			315.3,108.8 342.8,106.7 334,80.6 356.4,96.6 366.4,71 373.3,97.7 397.4,84.5 385.5,109.3 412.5,114.8 387.4,126.1 		"/>
		<circle class="st1" cx="363.9" cy="120.1" r="19.2"/>
	</g>
</g>
<g id="Layer_1">
	<g id="corn_x5F_behind" class="st2">
		<g>
			<g>
				<rect x="431.4" y="273.1" class="st3" width="2.6" height="3.8"/>
				<rect x="431.4" y="219.6" class="st3" width="2.6" height="30.4"/>
				
					<ellipse transform="matrix(0.4491 -0.8935 0.8935 0.4491 16.2075 529.6928)" class="st4" cx="437.6" cy="251.7" rx="7.3" ry="2.8"/>
				
					<ellipse transform="matrix(0.9826 -0.1857 0.1857 0.9826 -35.5187 83.783)" class="st4" cx="429.5" cy="231.5" rx="2.8" ry="7.3"/>
				<path class="st3" d="M434,273.1c0.1-2.8-0.2-6.6-1.7-10.7c-3.9-10.7-13.3-16.2-13.7-15.8s7.6,5.9,11.1,16.7
					c1.2,3.8,1.6,7.3,1.7,9.9"/>
				<path class="st3" d="M434.4,269.2c5.1-1.8,2.3-15.5,7.7-17.6c1.5-0.6,3.4-0.1,3.4-0.4c0-0.3-2-0.9-3.4-0.9
					c-7,0.5-13.7,15.4-10.7,18.4C432.1,269.4,433.4,269.6,434.4,269.2z"/>
				<rect x="431.4" y="247.4" class="st3" width="2.6" height="16.7"/>
				<path class="st3" d="M431.8,248.2c-2.3-2.2,2-12,9-16.3c1.1-0.7,2.8-1.5,3-1.3c0.2,0.3-3,2-5.1,5.1c-3.9,5.6-1.8,11.9-4.7,12.8
					C433.2,248.9,432.3,248.7,431.8,248.2z"/>
				<path class="st3" d="M431.4,250c-3.1-0.7-2-8.2-6-18c-2.2-5.4-5-9.2-4.7-9.4c0.2-0.2,2.4,2.7,3.8,4.7c2.9,4.1,12.8,18,9.4,21.8
					C433.4,249.8,432.3,250.2,431.4,250z"/>
				<path class="st3" d="M434,221.9c-0.3-0.9-0.9-2-1.8-3.1c-2-2.3-4.6-2.9-4.6-2.6c-0.1,0.3,2.8,1.2,3.6,3.9
					c0.2,0.6,0.2,1.4,0.7,1.7C432.4,222.4,433.3,222.1,434,221.9z"/>
				<path class="st3" d="M432.2,219c0.2-1.4,1.4-2.2,2.1-2.7c1.7-1.2,3.6-1.2,3.6-0.9c0.1,0.4-1.8,0.8-3.1,2.8
					c-0.9,1.5-0.7,2.8-1.3,3C432.9,221.6,432,220.3,432.2,219z"/>
				<path class="st3" d="M431.8,217.4c-0.4-3.1-1.5-4.6-1.3-4.7c0.4-0.2,3.5,2.6,3,5.5c-0.2,1.1-0.9,2.2-1.3,2.2
					C431.9,220.4,432.1,219.2,431.8,217.4z"/>
			</g>
			<g>
				<rect x="445.1" y="273.1" class="st3" width="2.6" height="3.8"/>
				<rect x="445.1" y="219.6" class="st3" width="2.6" height="30.4"/>
				
					<ellipse transform="matrix(0.4491 -0.8935 0.8935 0.4491 23.7561 541.9094)" class="st4" cx="451.3" cy="251.7" rx="7.3" ry="2.8"/>
				
					<ellipse transform="matrix(0.9826 -0.1857 0.1857 0.9826 -35.2795 86.3269)" class="st4" cx="443.2" cy="231.5" rx="2.8" ry="7.3"/>
				<path class="st3" d="M447.7,273.1c0.1-2.8-0.2-6.6-1.7-10.7c-3.9-10.7-13.3-16.2-13.7-15.8s7.6,5.9,11.1,16.7
					c1.2,3.8,1.6,7.3,1.7,9.9"/>
				<path class="st3" d="M448.1,269.2c5.1-1.8,2.3-15.5,7.7-17.6c1.5-0.6,3.4-0.1,3.4-0.4c0-0.3-2-0.9-3.4-0.9
					c-7,0.5-13.7,15.4-10.7,18.4C445.7,269.4,447,269.6,448.1,269.2z"/>
				<rect x="445.1" y="247.4" class="st3" width="2.6" height="16.7"/>
				<path class="st3" d="M445.5,248.2c-2.3-2.2,2-12,9-16.3c1.1-0.7,2.8-1.5,3-1.3c0.2,0.3-3,2-5.1,5.1c-3.9,5.6-1.8,11.9-4.7,12.8
					C446.9,248.9,446,248.7,445.5,248.2z"/>
				<path class="st3" d="M445.1,250c-3.1-0.7-2-8.2-6-18c-2.2-5.4-5-9.2-4.7-9.4c0.2-0.2,2.4,2.7,3.8,4.7c2.9,4.1,12.8,18,9.4,21.8
					C447,249.8,446,250.2,445.1,250z"/>
				<path class="st3" d="M447.7,221.9c-0.3-0.9-0.9-2-1.8-3.1c-2-2.3-4.6-2.9-4.6-2.6c-0.1,0.3,2.8,1.2,3.6,3.9
					c0.2,0.6,0.2,1.4,0.7,1.7C446.1,222.4,447,222.1,447.7,221.9z"/>
				<path class="st3" d="M445.9,219c0.2-1.4,1.4-2.2,2.1-2.7c1.7-1.2,3.6-1.2,3.6-0.9c0.1,0.4-1.8,0.8-3.1,2.8
					c-0.9,1.5-0.7,2.8-1.3,3C446.6,221.6,445.7,220.3,445.9,219z"/>
				<path class="st3" d="M445.5,217.4c-0.4-3.1-1.5-4.6-1.3-4.7c0.4-0.2,3.5,2.6,3,5.5c-0.2,1.1-0.9,2.2-1.3,2.2
					C445.6,220.4,445.7,219.2,445.5,217.4z"/>
			</g>
			<g>
				<rect x="417.7" y="273.1" class="st3" width="2.6" height="3.8"/>
				<rect x="417.7" y="219.6" class="st3" width="2.6" height="30.4"/>
				
					<ellipse transform="matrix(0.4491 -0.8935 0.8935 0.4491 8.6586 517.4764)" class="st4" cx="424" cy="251.7" rx="7.3" ry="2.8"/>
				
					<ellipse transform="matrix(0.9826 -0.1857 0.1857 0.9826 -35.7578 81.2392)" class="st4" cx="415.8" cy="231.5" rx="2.8" ry="7.3"/>
				<path class="st3" d="M420.3,273.1c0.1-2.8-0.2-6.6-1.7-10.7c-3.9-10.7-13.3-16.2-13.7-15.8s7.6,5.9,11.1,16.7
					c1.2,3.8,1.6,7.3,1.7,9.9"/>
				<path class="st3" d="M420.7,269.2c5.1-1.8,2.3-15.5,7.7-17.6c1.5-0.6,3.4-0.1,3.4-0.4c0-0.3-2-0.9-3.4-0.9
					c-7,0.5-13.7,15.4-10.7,18.4C418.4,269.4,419.7,269.6,420.7,269.2z"/>
				<rect x="417.7" y="247.4" class="st3" width="2.6" height="16.7"/>
				<path class="st3" d="M418.2,248.2c-2.3-2.2,2-12,9-16.3c1.1-0.7,2.8-1.5,3-1.3c0.2,0.3-3,2-5.1,5.1c-3.9,5.6-1.8,11.9-4.7,12.8
					C419.6,248.9,418.6,248.7,418.2,248.2z"/>
				<path class="st3" d="M417.7,250c-3.1-0.7-2-8.2-6-18c-2.2-5.4-5-9.2-4.7-9.4c0.2-0.2,2.4,2.7,3.8,4.7c2.9,4.1,12.8,18,9.4,21.8
					C419.7,249.8,418.6,250.2,417.7,250z"/>
				<path class="st3" d="M420.3,221.9c-0.3-0.9-0.9-2-1.8-3.1c-2-2.3-4.6-2.9-4.6-2.6c-0.1,0.3,2.8,1.2,3.6,3.9
					c0.2,0.6,0.2,1.4,0.7,1.7C418.8,222.4,419.6,222.1,420.3,221.9z"/>
				<path class="st3" d="M418.5,219c0.2-1.4,1.4-2.2,2.1-2.7c1.7-1.2,3.6-1.2,3.6-0.9c0.1,0.4-1.8,0.8-3.1,2.8
					c-0.9,1.5-0.7,2.8-1.3,3C419.3,221.6,418.3,220.3,418.5,219z"/>
				<path class="st3" d="M418.2,217.4c-0.4-3.1-1.5-4.6-1.3-4.7c0.4-0.2,3.5,2.6,3,5.5c-0.2,1.1-0.9,2.2-1.3,2.2
					C418.2,220.4,418.4,219.2,418.2,217.4z"/>
			</g>
			<g>
				<rect x="390.7" y="273.1" class="st3" width="2.6" height="3.8"/>
				<rect x="390.7" y="219.6" class="st3" width="2.6" height="30.4"/>
				
					<ellipse transform="matrix(0.4491 -0.8935 0.8935 0.4491 -6.1658 493.3677)" class="st4" cx="397" cy="251.7" rx="7.3" ry="2.8"/>
				
					<ellipse transform="matrix(0.9826 -0.1857 0.1857 0.9826 -36.2462 76.2303)" class="st4" cx="388.8" cy="231.6" rx="2.8" ry="7.3"/>
				<path class="st3" d="M393.3,273.1c0.1-2.8-0.2-6.6-1.7-10.7c-3.9-10.7-13.3-16.2-13.7-15.8c-0.4,0.4,7.6,5.9,11.1,16.7
					c1.2,3.8,1.6,7.3,1.7,9.9"/>
				<path class="st3" d="M393.8,269.2c5.1-1.8,2.3-15.5,7.7-17.6c1.5-0.6,3.4-0.1,3.4-0.4c0-0.3-2-0.9-3.4-0.9
					c-7,0.5-13.7,15.4-10.7,18.4C391.5,269.4,392.8,269.6,393.8,269.2z"/>
				<rect x="390.7" y="247.4" class="st3" width="2.6" height="16.7"/>
				<path class="st3" d="M391.2,248.2c-2.3-2.2,2-12,9-16.3c1.1-0.7,2.8-1.5,3-1.3c0.2,0.3-3,2-5.1,5.1c-3.9,5.6-1.8,11.9-4.7,12.8
					C392.6,248.9,391.7,248.7,391.2,248.2z"/>
				<path class="st3" d="M390.7,250c-3.1-0.7-2-8.2-6-18c-2.2-5.4-5-9.2-4.7-9.4c0.2-0.2,2.4,2.7,3.8,4.7c2.9,4.1,12.8,18,9.4,21.8
					C392.7,249.8,391.7,250.2,390.7,250z"/>
				<path class="st3" d="M393.3,221.9c-0.3-0.9-0.9-2-1.8-3.1c-2-2.3-4.6-2.9-4.6-2.6c-0.1,0.3,2.8,1.2,3.6,3.9
					c0.2,0.6,0.2,1.4,0.7,1.7C391.8,222.4,392.7,222.1,393.3,221.9z"/>
				<path class="st3" d="M391.6,219c0.2-1.4,1.4-2.2,2.1-2.7c1.7-1.2,3.6-1.2,3.6-0.9c0.1,0.4-1.8,0.8-3.1,2.8
					c-0.9,1.5-0.7,2.8-1.3,3C392.3,221.6,391.4,220.3,391.6,219z"/>
				<path class="st3" d="M391.2,217.4c-0.4-3.1-1.5-4.6-1.3-4.7c0.4-0.2,3.5,2.6,3,5.5c-0.2,1.1-0.9,2.2-1.3,2.2
					C391.3,220.4,391.4,219.2,391.2,217.4z"/>
			</g>
			<g>
				<rect x="404.5" y="273.1" class="st3" width="2.6" height="3.8"/>
				<rect x="404.5" y="219.6" class="st3" width="2.6" height="30.4"/>
				
					<ellipse transform="matrix(0.4491 -0.8935 0.8935 0.4491 1.3831 505.5841)" class="st4" cx="410.7" cy="251.7" rx="7.3" ry="2.8"/>
				
					<ellipse transform="matrix(0.9826 -0.1857 0.1857 0.9826 -36.007 78.7742)" class="st4" cx="402.5" cy="231.6" rx="2.8" ry="7.3"/>
				<path class="st3" d="M407,273.1c0.1-2.8-0.2-6.6-1.7-10.7c-3.9-10.7-13.3-16.2-13.7-15.8s7.6,5.9,11.1,16.7
					c1.2,3.8,1.6,7.3,1.7,9.9"/>
				<path class="st3" d="M407.4,269.2c5.1-1.8,2.3-15.5,7.7-17.6c1.5-0.6,3.4-0.1,3.4-0.4c0-0.3-2-0.9-3.4-0.9
					c-7,0.5-13.7,15.4-10.7,18.4C405.2,269.4,406.4,269.6,407.4,269.2z"/>
				<rect x="404.5" y="247.4" class="st3" width="2.6" height="16.7"/>
				<path class="st3" d="M404.9,248.2c-2.3-2.2,2-12,9-16.3c1.1-0.7,2.8-1.5,3-1.3c0.2,0.3-3,2-5.1,5.1c-3.9,5.6-1.8,11.9-4.7,12.8
					C406.3,248.9,405.4,248.7,404.9,248.2z"/>
				<path class="st3" d="M404.5,250c-3.1-0.7-2-8.2-6-18c-2.2-5.4-5-9.2-4.7-9.4c0.2-0.2,2.4,2.7,3.8,4.7c2.9,4.1,12.8,18,9.4,21.8
					C406.4,249.8,405.3,250.2,404.5,250z"/>
				<path class="st3" d="M407,221.9c-0.3-0.9-0.9-2-1.8-3.1c-2-2.3-4.6-2.9-4.6-2.6c-0.1,0.3,2.8,1.2,3.6,3.9
					c0.2,0.6,0.2,1.4,0.7,1.7C405.5,222.4,406.3,222.1,407,221.9z"/>
				<path class="st3" d="M405.3,219c0.2-1.4,1.4-2.2,2.1-2.7c1.7-1.2,3.6-1.2,3.6-0.9c0.1,0.4-1.8,0.8-3.1,2.8
					c-0.9,1.5-0.7,2.8-1.3,3C406,221.6,405.1,220.3,405.3,219z"/>
				<path class="st3" d="M404.9,217.4c-0.4-3.1-1.5-4.6-1.3-4.7c0.4-0.2,3.5,2.6,3,5.5c-0.2,1.1-0.9,2.2-1.3,2.2
					C405,220.4,405.1,219.2,404.9,217.4z"/>
			</g>
			<g>
				<rect x="377.1" y="273.1" class="st3" width="2.6" height="3.8"/>
				<rect x="377.1" y="219.6" class="st3" width="2.6" height="30.4"/>
				
					<ellipse transform="matrix(0.4491 -0.8935 0.8935 0.4491 -13.7145 481.1512)" class="st4" cx="383.3" cy="251.7" rx="7.3" ry="2.8"/>
				
					<ellipse transform="matrix(0.9826 -0.1857 0.1857 0.9826 -36.4623 73.6992)" class="st4" cx="375.2" cy="231.5" rx="2.8" ry="7.3"/>
				<path class="st3" d="M379.7,273.1c0.1-2.8-0.2-6.6-1.7-10.7c-3.9-10.7-13.3-16.2-13.7-15.8s7.6,5.9,11.1,16.7
					c1.2,3.8,1.6,7.3,1.7,9.9"/>
				<path class="st3" d="M380.1,269.2c5.1-1.8,2.3-15.5,7.7-17.6c1.5-0.6,3.4-0.1,3.4-0.4c0-0.3-2-0.9-3.4-0.9
					c-7,0.5-13.7,15.4-10.7,18.4C377.8,269.4,379,269.6,380.1,269.2z"/>
				<rect x="377.1" y="247.4" class="st3" width="2.6" height="16.7"/>
				<path class="st3" d="M377.5,248.2c-2.3-2.2,2-12,9-16.3c1.1-0.7,2.8-1.5,3-1.3c0.2,0.3-3,2-5.1,5.1c-3.9,5.6-1.8,11.9-4.7,12.8
					C378.9,248.9,378.1,248.7,377.5,248.2z"/>
				<path class="st3" d="M377.1,250c-3.1-0.7-2-8.2-6-18c-2.2-5.4-5-9.2-4.7-9.4c0.2-0.2,2.4,2.7,3.8,4.7c2.9,4.1,12.8,18,9.4,21.8
					C379,249.8,378,250.2,377.1,250z"/>
				<path class="st3" d="M379.7,221.9c-0.3-0.9-0.9-2-1.8-3.1c-2-2.3-4.6-2.9-4.6-2.6c-0.1,0.3,2.8,1.2,3.6,3.9
					c0.2,0.6,0.2,1.4,0.7,1.7C378.1,222.4,379,222.1,379.7,221.9z"/>
				<path class="st3" d="M377.9,219c0.2-1.4,1.4-2.2,2.1-2.7c1.7-1.2,3.6-1.2,3.6-0.9c0.1,0.4-1.8,0.8-3.1,2.8
					c-0.9,1.5-0.7,2.8-1.3,3C378.7,221.6,377.7,220.3,377.9,219z"/>
				<path class="st3" d="M377.5,217.4c-0.4-3.1-1.5-4.6-1.3-4.7c0.4-0.2,3.5,2.6,3,5.5c-0.2,1.1-0.9,2.2-1.3,2.2
					C377.6,220.4,377.7,219.2,377.5,217.4z"/>
			</g>
		</g>
	</g>
	<g id="Haybale">
		<g>
			<rect x="422.6" y="212.9" class="st5" width="72.3" height="64.1"/>
			<ellipse class="st6" cx="422.6" cy="245.2" rx="5.5" ry="32.3"/>
			<ellipse class="st5" cx="495.3" cy="245.2" rx="5.5" ry="32.3"/>
			<path class="st7" d="M438.9,275.3"/>
			<path class="st7" d="M442.5,244.6"/>
			<path class="st7" d="M437.6,212.9"/>
			<path class="st7" d="M484,278.3"/>
			<path class="st7" d="M488.7,244.6"/>
			<path class="st7" d="M483.8,212.9"/>
		</g>
	</g>
	<g id="Silo">
		<g>
			<rect x="929.9" y="160" class="st0" width="59.9" height="116.2"/>
			<polygon class="st6" points="922.5,162.1 960.9,125.9 997.5,162.4 			"/>
		</g>
	</g>
	<g id="Corn">
		<g class="st8">
			<g>
				<rect x="531.7" y="272.6" class="st3" width="2.6" height="3.8"/>
				<rect x="531.7" y="219.1" class="st3" width="2.6" height="30.4"/>
				
					<ellipse transform="matrix(0.4491 -0.8935 0.8935 0.4491 71.9034 619.0198)" class="st4" cx="537.9" cy="251.2" rx="7.3" ry="2.8"/>
				
					<ellipse transform="matrix(0.9826 -0.1857 0.1857 0.9826 -33.6984 102.4047)" class="st4" cx="529.8" cy="231.1" rx="2.8" ry="7.3"/>
				<path class="st3" d="M534.3,272.6c0.1-2.8-0.2-6.6-1.7-10.7c-3.9-10.7-13.3-16.2-13.7-15.8s7.6,5.9,11.1,16.7
					c1.2,3.8,1.6,7.3,1.7,9.9"/>
				<path class="st3" d="M534.7,268.7c5.1-1.8,2.3-15.5,7.7-17.6c1.5-0.6,3.4-0.1,3.4-0.4c0-0.3-2-0.9-3.4-0.9
					c-7,0.5-13.7,15.4-10.7,18.4C532.3,268.9,533.6,269.1,534.7,268.7z"/>
				<rect x="531.7" y="246.9" class="st3" width="2.6" height="16.7"/>
				<path class="st3" d="M532.1,247.7c-2.3-2.2,2-12,9-16.3c1.1-0.7,2.8-1.5,3-1.3c0.2,0.3-3,2-5.1,5.1c-3.9,5.6-1.8,11.9-4.7,12.8
					C533.5,248.4,532.6,248.2,532.1,247.7z"/>
				<path class="st3" d="M531.7,249.5c-3.1-0.7-2-8.2-6-18c-2.2-5.4-5-9.2-4.7-9.4c0.2-0.2,2.4,2.7,3.8,4.7
					c2.9,4.1,12.8,18,9.4,21.8C533.6,249.3,532.6,249.7,531.7,249.5z"/>
				<path class="st3" d="M534.3,221.4c-0.3-0.9-0.9-2-1.8-3.1c-2-2.3-4.6-2.9-4.6-2.6c-0.1,0.3,2.8,1.2,3.6,3.9
					c0.2,0.6,0.2,1.4,0.7,1.7C532.7,221.9,533.6,221.6,534.3,221.4z"/>
				<path class="st3" d="M532.5,218.5c0.2-1.4,1.4-2.2,2.1-2.7c1.7-1.2,3.6-1.2,3.6-0.9c0.1,0.4-1.8,0.8-3.1,2.8
					c-0.9,1.5-0.7,2.8-1.3,3C533.2,221.1,532.3,219.8,532.5,218.5z"/>
				<path class="st3" d="M532.1,217c-0.4-3.1-1.5-4.6-1.3-4.7c0.4-0.2,3.5,2.6,3,5.5c-0.2,1.1-0.9,2.2-1.3,2.2
					C532.2,219.9,532.3,218.7,532.1,217z"/>
			</g>
			<g>
				<rect x="545.3" y="272.6" class="st3" width="2.6" height="3.8"/>
				<rect x="545.3" y="219.1" class="st3" width="2.6" height="30.4"/>
				
					<ellipse transform="matrix(0.4491 -0.8935 0.8935 0.4491 79.4521 631.2362)" class="st4" cx="551.6" cy="251.2" rx="7.3" ry="2.8"/>
				
					<ellipse transform="matrix(0.9826 -0.1857 0.1857 0.9826 -33.4644 104.9307)" class="st4" cx="543.4" cy="231.1" rx="2.8" ry="7.3"/>
				<path class="st3" d="M547.9,272.6c0.1-2.8-0.2-6.6-1.7-10.7c-3.9-10.7-13.3-16.2-13.7-15.8s7.6,5.9,11.1,16.7
					c1.2,3.8,1.6,7.3,1.7,9.9"/>
				<path class="st3" d="M548.4,268.7c5.1-1.8,2.3-15.5,7.7-17.6c1.5-0.6,3.4-0.1,3.4-0.4c0-0.3-2-0.9-3.4-0.9
					c-7,0.5-13.7,15.4-10.7,18.4C546.1,268.9,547.3,269.1,548.4,268.7z"/>
				<rect x="545.3" y="246.9" class="st3" width="2.6" height="16.7"/>
				<path class="st3" d="M545.8,247.7c-2.3-2.2,2-12,9-16.3c1.1-0.7,2.8-1.5,3-1.3c0.2,0.3-3,2-5.1,5.1c-3.9,5.6-1.8,11.9-4.7,12.8
					C547.2,248.4,546.3,248.2,545.8,247.7z"/>
				<path class="st3" d="M545.3,249.5c-3.1-0.7-2-8.2-6-18c-2.2-5.4-5-9.2-4.7-9.4c0.2-0.2,2.4,2.7,3.8,4.7
					c2.9,4.1,12.8,18,9.4,21.8C547.3,249.3,546.3,249.7,545.3,249.5z"/>
				<path class="st3" d="M547.9,221.4c-0.3-0.9-0.9-2-1.8-3.1c-2-2.3-4.6-2.9-4.6-2.6c-0.1,0.3,2.8,1.2,3.6,3.9
					c0.2,0.6,0.2,1.4,0.7,1.7C546.4,221.9,547.3,221.6,547.9,221.4z"/>
				<path class="st3" d="M546.1,218.5c0.2-1.4,1.4-2.2,2.1-2.7c1.7-1.2,3.6-1.2,3.6-0.9c0.1,0.4-1.8,0.8-3.1,2.8
					c-0.9,1.5-0.7,2.8-1.3,3C546.9,221.1,546,219.8,546.1,218.5z"/>
				<path class="st3" d="M545.8,217c-0.4-3.1-1.5-4.6-1.3-4.7c0.4-0.2,3.5,2.6,3,5.5c-0.2,1.1-0.9,2.2-1.3,2.2
					C545.9,219.9,546,218.7,545.8,217z"/>
			</g>
			<g>
				<rect x="518" y="272.6" class="st3" width="2.6" height="3.8"/>
				<rect x="518" y="219.1" class="st3" width="2.6" height="30.4"/>
				
					<ellipse transform="matrix(0.4491 -0.8935 0.8935 0.4491 64.3548 606.8033)" class="st4" cx="524.2" cy="251.2" rx="7.3" ry="2.8"/>
				
					<ellipse transform="matrix(0.9826 -0.1857 0.1857 0.9826 -33.9376 99.8609)" class="st4" cx="516.1" cy="231.1" rx="2.8" ry="7.3"/>
				<path class="st3" d="M520.6,272.6c0.1-2.8-0.2-6.6-1.7-10.7c-3.9-10.7-13.3-16.2-13.7-15.8s7.6,5.9,11.1,16.7
					c1.2,3.8,1.6,7.3,1.7,9.9"/>
				<path class="st3" d="M521,268.7c5.1-1.8,2.3-15.5,7.7-17.6c1.5-0.6,3.4-0.1,3.4-0.4c0-0.3-2-0.9-3.4-0.9
					c-7,0.5-13.7,15.4-10.7,18.4C518.7,268.9,520,269.1,521,268.7z"/>
				<rect x="518" y="246.9" class="st3" width="2.6" height="16.7"/>
				<path class="st3" d="M518.4,247.7c-2.3-2.2,2-12,9-16.3c1.1-0.7,2.8-1.5,3-1.3c0.2,0.3-3,2-5.1,5.1c-3.9,5.6-1.8,11.9-4.7,12.8
					C519.8,248.4,518.9,248.2,518.4,247.7z"/>
				<path class="st3" d="M518,249.5c-3.1-0.7-2-8.2-6-18c-2.2-5.4-5-9.2-4.7-9.4c0.2-0.2,2.4,2.7,3.8,4.7c2.9,4.1,12.8,18,9.4,21.8
					C520,249.3,518.9,249.7,518,249.5z"/>
				<path class="st3" d="M520.6,221.4c-0.3-0.9-0.9-2-1.8-3.1c-2-2.3-4.6-2.9-4.6-2.6c-0.1,0.3,2.8,1.2,3.6,3.9
					c0.2,0.6,0.2,1.4,0.7,1.7C519,221.9,519.9,221.6,520.6,221.4z"/>
				<path class="st3" d="M518.8,218.5c0.2-1.4,1.4-2.2,2.1-2.7c1.7-1.2,3.6-1.2,3.6-0.9c0.1,0.4-1.8,0.8-3.1,2.8
					c-0.9,1.5-0.7,2.8-1.3,3C519.5,221.1,518.6,219.8,518.8,218.5z"/>
				<path class="st3" d="M518.4,217c-0.4-3.1-1.5-4.6-1.3-4.7c0.4-0.2,3.5,2.6,3,5.5c-0.2,1.1-0.9,2.2-1.3,2.2
					C518.5,219.9,518.7,218.7,518.4,217z"/>
			</g>
			<g>
				<rect x="491.1" y="272.6" class="st3" width="2.6" height="3.8"/>
				<rect x="491.1" y="219.1" class="st3" width="2.6" height="30.4"/>
				
					<ellipse transform="matrix(0.4491 -0.8935 0.8935 0.4491 49.5303 582.6945)" class="st4" cx="497.3" cy="251.2" rx="7.3" ry="2.8"/>
				
					<ellipse transform="matrix(0.9826 -0.1857 0.1857 0.9826 -34.408 94.8469)" class="st4" cx="489.1" cy="231.1" rx="2.8" ry="7.3"/>
				<path class="st3" d="M493.6,272.6c0.1-2.8-0.2-6.6-1.7-10.7c-3.9-10.7-13.3-16.2-13.7-15.8s7.6,5.9,11.1,16.7
					c1.2,3.8,1.6,7.3,1.7,9.9"/>
				<path class="st3" d="M494,268.7c5.1-1.8,2.3-15.5,7.7-17.6c1.5-0.6,3.4-0.1,3.4-0.4c0-0.3-2-0.9-3.4-0.9
					c-7,0.5-13.7,15.4-10.7,18.4C491.8,268.9,493.1,269.1,494,268.7z"/>
				<rect x="491.1" y="246.9" class="st3" width="2.6" height="16.7"/>
				<path class="st3" d="M491.5,247.7c-2.3-2.2,2-12,9-16.3c1.1-0.7,2.8-1.5,3-1.3c0.2,0.3-3,2-5.1,5.1c-3.9,5.6-1.8,11.9-4.7,12.8
					C492.9,248.4,492,248.2,491.5,247.7z"/>
				<path class="st3" d="M491.1,249.5c-3.1-0.7-2-8.2-6-18c-2.2-5.4-5-9.2-4.7-9.4c0.2-0.2,2.4,2.7,3.8,4.7
					c2.9,4.1,12.8,18,9.4,21.8C493.1,249.3,491.9,249.7,491.1,249.5z"/>
				<path class="st3" d="M493.6,221.4c-0.3-0.9-0.9-2-1.8-3.1c-2-2.3-4.6-2.9-4.6-2.6c-0.1,0.3,2.8,1.2,3.6,3.9
					c0.2,0.6,0.2,1.4,0.7,1.7C492.1,221.9,492.9,221.6,493.6,221.4z"/>
				<path class="st3" d="M491.9,218.5c0.2-1.4,1.4-2.2,2.1-2.7c1.7-1.2,3.6-1.2,3.6-0.9c0.1,0.4-1.8,0.8-3.1,2.8
					c-0.9,1.5-0.7,2.8-1.3,3C492.6,221.1,491.7,219.8,491.9,218.5z"/>
				<path class="st3" d="M491.5,217c-0.4-3.1-1.5-4.6-1.3-4.7c0.4-0.2,3.5,2.6,3,5.5c-0.2,1.1-0.9,2.2-1.3,2.2
					C491.6,219.9,491.7,218.7,491.5,217z"/>
			</g>
			<g>
				<rect x="504.8" y="272.6" class="st3" width="2.6" height="3.8"/>
				<rect x="504.8" y="219.1" class="st3" width="2.6" height="30.4"/>
				
					<ellipse transform="matrix(0.4491 -0.8935 0.8935 0.4491 57.1196 594.9655)" class="st4" cx="511" cy="251.2" rx="7.3" ry="2.8"/>
				
					<ellipse transform="matrix(0.9826 -0.1857 0.1857 0.9826 -34.1709 97.3915)" class="st4" cx="502.8" cy="231.1" rx="2.8" ry="7.3"/>
				<path class="st3" d="M507.3,272.6c0.1-2.8-0.2-6.6-1.7-10.7c-3.9-10.7-13.3-16.2-13.7-15.8s7.6,5.9,11.1,16.7
					c1.2,3.8,1.6,7.3,1.7,9.9"/>
				<path class="st3" d="M507.7,268.7c5.1-1.8,2.3-15.5,7.7-17.6c1.5-0.6,3.4-0.1,3.4-0.4c0-0.3-2-0.9-3.4-0.9
					c-7,0.5-13.7,15.4-10.7,18.4C505.4,268.9,506.7,269.1,507.7,268.7z"/>
				<rect x="504.8" y="246.9" class="st3" width="2.6" height="16.7"/>
				<path class="st3" d="M505.2,247.7c-2.3-2.2,2-12,9-16.3c1.1-0.7,2.8-1.5,3-1.3c0.2,0.3-3,2-5.1,5.1c-3.9,5.6-1.8,11.9-4.7,12.8
					C506.6,248.4,505.7,248.2,505.2,247.7z"/>
				<path class="st3" d="M504.8,249.5c-3.1-0.7-2-8.2-6-18c-2.2-5.4-5-9.2-4.7-9.4c0.2-0.2,2.4,2.7,3.8,4.7
					c2.9,4.1,12.8,18,9.4,21.8C506.7,249.3,505.6,249.7,504.8,249.5z"/>
				<path class="st3" d="M507.3,221.4c-0.3-0.9-0.9-2-1.8-3.1c-2-2.3-4.6-2.9-4.6-2.6c-0.1,0.3,2.8,1.2,3.6,3.9
					c0.2,0.6,0.2,1.4,0.7,1.7C505.8,221.9,506.7,221.6,507.3,221.4z"/>
				<path class="st3" d="M505.6,218.5c0.2-1.4,1.4-2.2,2.1-2.7c1.7-1.2,3.6-1.2,3.6-0.9c0.1,0.4-1.8,0.8-3.1,2.8
					c-0.9,1.5-0.7,2.8-1.3,3C506.3,221.1,505.4,219.8,505.6,218.5z"/>
				<path class="st3" d="M505.2,217c-0.4-3.1-1.5-4.6-1.3-4.7c0.4-0.2,3.5,2.6,3,5.5c-0.2,1.1-0.9,2.2-1.3,2.2
					C505.2,219.9,505.4,218.7,505.2,217z"/>
			</g>
			<g>
				<rect x="477.4" y="272.6" class="st3" width="2.6" height="3.8"/>
				<rect x="477.4" y="219.1" class="st3" width="2.6" height="30.4"/>
				
					<ellipse transform="matrix(0.4491 -0.8935 0.8935 0.4491 41.9816 570.4782)" class="st4" cx="483.6" cy="251.2" rx="7.3" ry="2.8"/>
				
					<ellipse transform="matrix(0.9826 -0.1857 0.1857 0.9826 -34.6472 92.303)" class="st4" cx="475.4" cy="231.1" rx="2.8" ry="7.3"/>
				<path class="st3" d="M479.9,272.6c0.1-2.8-0.2-6.6-1.7-10.7c-3.9-10.7-13.3-16.2-13.7-15.8s7.6,5.9,11.1,16.7
					c1.2,3.8,1.6,7.3,1.7,9.9"/>
				<path class="st3" d="M480.4,268.7c5.1-1.8,2.3-15.5,7.7-17.6c1.5-0.6,3.4-0.1,3.4-0.4c0-0.3-2-0.9-3.4-0.9
					c-7,0.5-13.7,15.4-10.7,18.4C478.1,268.9,479.4,269.1,480.4,268.7z"/>
				<rect x="477.4" y="246.9" class="st3" width="2.6" height="16.7"/>
				<path class="st3" d="M477.8,247.7c-2.3-2.2,2-12,9-16.3c1.1-0.7,2.8-1.5,3-1.3c0.2,0.3-3,2-5.1,5.1c-3.9,5.6-1.8,11.9-4.7,12.8
					C479.2,248.4,478.3,248.2,477.8,247.7z"/>
				<path class="st3" d="M477.4,249.5c-3.1-0.7-2-8.2-6-18c-2.2-5.4-5-9.2-4.7-9.4c0.2-0.2,2.4,2.7,3.8,4.7
					c2.9,4.1,12.8,18,9.4,21.8C479.3,249.3,478.3,249.7,477.4,249.5z"/>
				<path class="st3" d="M479.9,221.4c-0.3-0.9-0.9-2-1.8-3.1c-2-2.3-4.6-2.9-4.6-2.6c-0.1,0.3,2.8,1.2,3.6,3.9
					c0.2,0.6,0.2,1.4,0.7,1.7C478.4,221.9,479.3,221.6,479.9,221.4z"/>
				<path class="st3" d="M478.2,218.5c0.2-1.4,1.4-2.2,2.1-2.7c1.7-1.2,3.6-1.2,3.6-0.9c0.1,0.4-1.8,0.8-3.1,2.8
					c-0.9,1.5-0.7,2.8-1.3,3C478.9,221.1,478,219.8,478.2,218.5z"/>
				<path class="st3" d="M477.8,217c-0.4-3.1-1.5-4.6-1.3-4.7c0.4-0.2,3.5,2.6,3,5.5c-0.2,1.1-0.9,2.2-1.3,2.2
					C477.9,219.9,478,218.7,477.8,217z"/>
			</g>
		</g>
	</g>
	<g id="Layer_7">
		<g>
			<g>
				<g>
					<rect x="1013.6" y="223.2" class="st6" width="58.3" height="52.8"/>
					<rect x="956.3" y="223.2" class="st5" width="57.3" height="52.8"/>
					<path class="st4" d="M1018.5,223.2c1.3-2,2.7-3.9,4.1-5.9c1.8-10.1,3.5-20.2,5.3-30.3c6.3-6.8,12.5-13.6,18.8-20.4
						c6.7,6.7,13.4,13.5,20,20.3c1.7,10.2,3.4,20.4,5.1,30.7c1.3,1.9,2.6,3.8,3.9,5.7C1056.7,223.2,1037.6,223.2,1018.5,223.2z"/>
					<rect x="984.5" y="166.6" class="st4" width="62.2" height="56.7"/>
					<path class="st4" d="M952.7,223.2c1.4-2,2.8-3.9,4.2-5.9c1.9-10.1,3.7-20.2,5.5-30.3c6.4-6.8,12.9-13.6,19.4-20.4
						c6.9,6.7,13.8,13.5,20.7,20.3c1.7,10.2,3.5,20.4,5.3,30.7c1.3,1.9,2.7,3.8,4,5.7C992,223.2,972.3,223.2,952.7,223.2z"/>
					<rect x="981.7" y="166.6" class="st4" width="4.1" height="1.9"/>
					<path class="st5" d="M956.3,223.2c1.3-2,2.7-3.9,4.1-5.9c1.8-10.1,3.5-20.2,5.3-30.3c6.3-6.8,12.5-13.6,18.8-20.4
						c6.7,6.7,13.4,13.5,20,20.3c1.7,10.2,3.4,20.4,5.1,30.7c1.3,1.9,2.6,3.8,3.9,5.7C994.5,223.2,975.4,223.2,956.3,223.2z"/>
					<rect x="964.7" y="226" class="st4" width="39.3" height="50.4"/>
					
						<rect x="972.7" y="225.5" transform="matrix(0.9481 -0.318 0.318 0.9481 -29.4071 322.7842)" class="st0" width="2.6" height="51.9"/>
					
						<rect x="947.8" y="250.1" transform="matrix(0.3022 -0.9532 0.9532 0.3022 439.8442 1103.6437)" class="st0" width="52" height="2.6"/>
					<rect x="964.5" y="225.4" class="st0" width="39.5" height="2.8"/>
					<rect x="964.5" y="226.1" class="st0" width="2" height="50.1"/>
					
						<rect x="993.7" y="225.8" transform="matrix(0.9481 -0.318 0.318 0.9481 -28.4009 329.483)" class="st0" width="2.6" height="51.9"/>
					
						<rect x="968.6" y="250.3" transform="matrix(0.3022 -0.9532 0.9532 0.3022 454.1166 1123.651)" class="st0" width="52" height="2.6"/>
					<rect x="1002" y="226.7" class="st0" width="2" height="50.1"/>
					<rect x="983.1" y="226.9" class="st0" width="2" height="50.1"/>
				</g>
				<rect x="956.3" y="223.2" class="st0" width="57.4" height="0.8"/>
			</g>
			<rect x="973.6" y="190.5" class="st4" width="16.2" height="29.2"/>
			<rect x="973.6" y="189.1" class="st0" width="16.2" height="2.5"/>
			<rect x="986.7" y="189.1" class="st0" width="3" height="30.5"/>
			<rect x="973.6" y="189.1" class="st0" width="1.9" height="30.5"/>
			<rect x="973.6" y="217.1" class="st0" width="15.9" height="2.5"/>
		</g>
	</g>
	<g id="Tractor">
		<g>
			<path class="st9" d="M809.9,259.9h-19.7c-4.5,0-8.1-3.6-8.1-8.1v-10.1c0-4.5,3.6-8.1,8.1-8.1h19.7c4.5,0,8.1,3.6,8.1,8.1v10.1
				C818,256.3,814.3,259.9,809.9,259.9z"/>
			<path class="st4" d="M791.2,247.9h-9.1c-0.5,0-0.9-0.4-0.9-0.9l0,0c0-0.5,0.4-0.9,0.9-0.9h9.1c0.5,0,0.9,0.4,0.9,0.9l0,0
				C792.1,247.5,791.7,247.9,791.2,247.9z"/>
			<path class="st4" d="M791.2,252.2h-9.1c-0.5,0-0.9-0.4-0.9-0.9l0,0c0-0.5,0.4-0.9,0.9-0.9h9.1c0.5,0,0.9,0.4,0.9,0.9l0,0
				C792.1,251.8,791.7,252.2,791.2,252.2z"/>
			<path class="st4" d="M790.2,243.6H782c-0.5,0-0.9-0.4-0.9-0.9l0,0c0-0.5,0.4-0.9,0.9-0.9h8.2c0.5,0,0.9,0.4,0.9,0.9l0,0
				C791.2,243.2,790.8,243.6,790.2,243.6z"/>
			<path class="st9" d="M817,236.7L817,236.7c-0.3-0.3-0.3-0.7,0-1l2.4-2.4c0.3-0.3,0.7-0.3,1,0l0,0c0.3,0.3,0.3,0.7,0,1l-2.4,2.4
				C817.8,237,817.3,237,817,236.7z"/>
			
				<ellipse transform="matrix(0.7071 -0.7071 0.7071 0.7071 75.8142 648.6135)" class="st9" cx="820.9" cy="232.8" rx="2.4" ry="4.5"/>
			<path class="st4" d="M819.5,245.9l11.7-12.6c0.4-0.4,0.9-0.7,1.5-0.7h13.4c1.1,0,2,0.9,2,2l0,0c0,0.5-0.2,1.1-0.6,1.4l-12.1,12.1
				l-8.4,8.5c-0.9,0.9-2.5,0.7-3.2-0.4l-4.6-8C818.8,247.5,818.9,246.5,819.5,245.9z"/>
			<path class="st4" d="M790.7,256.1v-6.7c0.1-1.4-0.2-2.5-0.5-3.4c-1.6-4.5-6.3-6.5-8.7-7.3c-0.8-0.3-1.3-1-1.3-1.8v-1.1
				c0-0.5,0.2-1,0.5-1.3l2.2-2.2c0.3-0.3,0.9-0.5,1.3-0.5h26.1h4c0.7,0,1.5,0.5,1.8,1.2l8.3,20.2c0.2,0.4,0.5,0.7,0.9,1l0.7,0.3
				c1.8,0.9,1.1,3.6-0.9,3.6h-32.6C791.6,257.9,790.7,257.1,790.7,256.1L790.7,256.1z"/>
			<circle class="st10" cx="792.1" cy="265.6" r="10.5"/>
			<circle class="st10" cx="837.4" cy="259.6" r="16.5"/>
			<path class="st9" d="M792.1,270.9L792.1,270.9c-2.9,0-5.3-2.4-5.3-5.3l0,0c0-2.9,2.4-5.3,5.3-5.3l0,0c2.9,0,5.3,2.4,5.3,5.3l0,0
				C797.4,268.5,795,270.9,792.1,270.9z"/>
			<circle class="st9" cx="837.4" cy="259.6" r="9.3"/>
			<path class="st4" d="M793.8,227.3L793.8,227.3c-0.9,0-1.7,0.7-1.7,1.7v2.9c0,0.9,0.7,1.7,1.7,1.7l0,0c0.9,0,1.7-0.7,1.7-1.7V229
				C795.5,228.1,794.7,227.3,793.8,227.3z"/>
			<path class="st4" d="M801,210.1L801,210.1c-0.9,0-1.7,0.7-1.7,1.7v20.1c0,0.9,0.7,1.7,1.7,1.7l0,0c0.9,0,1.7-0.7,1.7-1.7v-20.1
				C802.6,210.8,801.9,210.1,801,210.1z"/>
			<path class="st4" d="M803.7,213.9h-2.4c-1.1,0-1.9-0.9-1.9-1.9l0,0c0-1.1,0.9-1.9,1.9-1.9h2.4c1.1,0,1.9,0.9,1.9,1.9l0,0
				C805.5,213.1,804.7,213.9,803.7,213.9z"/>
			<path class="st4" d="M793.8,224.5l-3.4,3.4c-0.3,0.3-0.3,1,0.2,1.2l0.2,0.1c1.8,0.9,4,0.9,5.9,0l0,0c0.6-0.3,0.7-1.1,0.3-1.5
				L793.8,224.5z"/>
		</g>
	</g>
	<g id="smoke">
		<circle class="st5" cx="820.5" cy="202.6" r="5.5"/>
		<circle class="st5" cx="836.8" cy="190.9" r="8.5"/>
		<circle class="st5" cx="857.7" cy="174.1" r="11"/>
	</g>
	<g id="Line">
		<line class="st11" x1="12" y1="276" x2="1426" y2="276"/>
	</g>
	<g id="Corn_1_">
		<g class="st8">
			<g>
				<rect x="615.3" y="272.1" class="st3" width="2.6" height="3.8"/>
				<rect x="615.3" y="218.6" class="st3" width="2.6" height="30.4"/>
				
					<ellipse transform="matrix(0.4491 -0.8935 0.8935 0.4491 118.4182 693.43)" class="st4" cx="621.5" cy="250.7" rx="7.3" ry="2.8"/>
				
					<ellipse transform="matrix(0.9826 -0.1857 0.1857 0.9826 -32.1562 117.9027)" class="st4" cx="613.3" cy="230.6" rx="2.8" ry="7.3"/>
				<path class="st3" d="M617.8,272.1c0.1-2.8-0.2-6.6-1.7-10.7c-3.9-10.7-13.3-16.2-13.7-15.8s7.6,5.9,11.1,16.7
					c1.2,3.8,1.6,7.3,1.7,9.9"/>
				<path class="st3" d="M618.3,268.2c5.1-1.8,2.3-15.5,7.7-17.6c1.5-0.6,3.4-0.1,3.4-0.4c0-0.3-2-0.9-3.4-0.9
					c-7,0.5-13.7,15.4-10.7,18.4C615.9,268.4,617.2,268.6,618.3,268.2z"/>
				<rect x="615.3" y="246.4" class="st3" width="2.6" height="16.7"/>
				<path class="st3" d="M615.7,247.2c-2.3-2.2,2-12,9-16.3c1.1-0.7,2.8-1.5,3-1.3c0.2,0.3-3,2-5.1,5.1c-3.9,5.6-1.8,11.9-4.7,12.8
					C617.1,247.9,616.2,247.7,615.7,247.2z"/>
				<path class="st3" d="M615.3,249c-3.1-0.7-2-8.2-6-18c-2.2-5.4-5-9.2-4.7-9.4c0.2-0.2,2.4,2.7,3.8,4.7c2.9,4.1,12.8,18,9.4,21.8
					C617.2,248.8,616.2,249.2,615.3,249z"/>
				<path class="st3" d="M617.8,220.9c-0.3-0.9-0.9-2-1.8-3.1c-2-2.3-4.6-2.9-4.6-2.6c-0.1,0.3,2.8,1.2,3.6,3.9
					c0.2,0.6,0.2,1.4,0.7,1.7C616.3,221.4,617.2,221.1,617.8,220.9z"/>
				<path class="st3" d="M616.1,218c0.2-1.4,1.4-2.2,2.1-2.7c1.7-1.2,3.6-1.2,3.6-0.9c0.1,0.4-1.8,0.8-3.1,2.8
					c-0.9,1.5-0.7,2.8-1.3,3C616.8,220.6,615.9,219.3,616.1,218z"/>
				<path class="st3" d="M615.7,216.4c-0.4-3.1-1.5-4.6-1.3-4.7c0.4-0.2,3.5,2.6,3,5.5c-0.2,1.1-0.9,2.2-1.3,2.2
					C615.8,219.4,615.9,218.2,615.7,216.4z"/>
			</g>
			<g>
				<rect x="628.9" y="272.1" class="st3" width="2.6" height="3.8"/>
				<rect x="628.9" y="218.6" class="st3" width="2.6" height="30.4"/>
				
					<ellipse transform="matrix(0.4491 -0.8935 0.8935 0.4491 125.9669 705.6463)" class="st4" cx="635.2" cy="250.7" rx="7.3" ry="2.8"/>
				
					<ellipse transform="matrix(0.9826 -0.1857 0.1857 0.9826 -31.917 120.4466)" class="st4" cx="627" cy="230.6" rx="2.8" ry="7.3"/>
				<path class="st3" d="M631.5,272.1c0.1-2.8-0.2-6.6-1.7-10.7c-3.9-10.7-13.3-16.2-13.7-15.8s7.6,5.9,11.1,16.7
					c1.2,3.8,1.6,7.3,1.7,9.9"/>
				<path class="st3" d="M631.9,268.2c5.1-1.8,2.3-15.5,7.7-17.6c1.5-0.6,3.4-0.1,3.4-0.4c0-0.3-2-0.9-3.4-0.9
					c-7,0.5-13.7,15.4-10.7,18.4C629.7,268.4,630.9,268.6,631.9,268.2z"/>
				<rect x="628.9" y="246.4" class="st3" width="2.6" height="16.7"/>
				<path class="st3" d="M629.4,247.2c-2.3-2.2,2-12,9-16.3c1.1-0.7,2.8-1.5,3-1.3c0.2,0.3-3,2-5.1,5.1c-3.9,5.6-1.8,11.9-4.7,12.8
					C630.8,247.9,629.9,247.7,629.4,247.2z"/>
				<path class="st3" d="M628.9,249c-3.1-0.7-2-8.2-6-18c-2.2-5.4-5-9.2-4.7-9.4c0.2-0.2,2.4,2.7,3.8,4.7c2.9,4.1,12.8,18,9.4,21.8
					C630.9,248.8,629.9,249.2,628.9,249z"/>
				<path class="st3" d="M631.5,220.9c-0.3-0.9-0.9-2-1.8-3.1c-2-2.3-4.6-2.9-4.6-2.6c-0.1,0.3,2.8,1.2,3.6,3.9
					c0.2,0.6,0.2,1.4,0.7,1.7C630,221.4,630.8,221.1,631.5,220.9z"/>
				<path class="st3" d="M629.7,218c0.2-1.4,1.4-2.2,2.1-2.7c1.7-1.2,3.6-1.2,3.6-0.9c0.1,0.4-1.8,0.8-3.1,2.8
					c-0.9,1.5-0.7,2.8-1.3,3C630.5,220.6,629.6,219.3,629.7,218z"/>
				<path class="st3" d="M629.4,216.4c-0.4-3.1-1.5-4.6-1.3-4.7c0.4-0.2,3.5,2.6,3,5.5c-0.2,1.1-0.9,2.2-1.3,2.2
					C629.5,219.4,629.6,218.2,629.4,216.4z"/>
			</g>
			<g>
				<rect x="601.6" y="272.1" class="st3" width="2.6" height="3.8"/>
				<rect x="601.6" y="218.6" class="st3" width="2.6" height="30.4"/>
				
					<ellipse transform="matrix(0.4491 -0.8935 0.8935 0.4491 110.8695 681.2134)" class="st4" cx="607.8" cy="250.7" rx="7.3" ry="2.8"/>
				
					<ellipse transform="matrix(0.9826 -0.1857 0.1857 0.9826 -32.3723 115.3716)" class="st4" cx="599.7" cy="230.5" rx="2.8" ry="7.3"/>
				<path class="st3" d="M604.2,272.1c0.1-2.8-0.2-6.6-1.7-10.7c-3.9-10.7-13.3-16.2-13.7-15.8s7.6,5.9,11.1,16.7
					c1.2,3.8,1.6,7.3,1.7,9.9"/>
				<path class="st3" d="M604.6,268.2c5.1-1.8,2.3-15.5,7.7-17.6c1.5-0.6,3.4-0.1,3.4-0.4c0-0.3-2-0.9-3.4-0.9
					c-7,0.5-13.7,15.4-10.7,18.4C602.3,268.4,603.6,268.6,604.6,268.2z"/>
				<rect x="601.6" y="246.4" class="st3" width="2.6" height="16.7"/>
				<path class="st3" d="M602,247.2c-2.3-2.2,2-12,9-16.3c1.1-0.7,2.8-1.5,3-1.3c0.2,0.3-3,2-5.1,5.1c-3.9,5.6-1.8,11.9-4.7,12.8
					C603.4,247.9,602.5,247.7,602,247.2z"/>
				<path class="st3" d="M601.6,249c-3.1-0.7-2-8.2-6-18c-2.2-5.4-5-9.2-4.7-9.4c0.2-0.2,2.4,2.7,3.8,4.7c2.9,4.1,12.8,18,9.4,21.8
					C603.6,248.8,602.5,249.2,601.6,249z"/>
				<path class="st3" d="M604.2,220.9c-0.3-0.9-0.9-2-1.8-3.1c-2-2.3-4.6-2.9-4.6-2.6c-0.1,0.3,2.8,1.2,3.6,3.9
					c0.2,0.6,0.2,1.4,0.7,1.7C602.6,221.4,603.5,221.1,604.2,220.9z"/>
				<path class="st3" d="M602.4,218c0.2-1.4,1.4-2.2,2.1-2.7c1.7-1.2,3.6-1.2,3.6-0.9c0.1,0.4-1.8,0.8-3.1,2.8
					c-0.9,1.5-0.7,2.8-1.3,3C603.1,220.6,602.2,219.3,602.4,218z"/>
				<path class="st3" d="M602,216.4c-0.4-3.1-1.5-4.6-1.3-4.7c0.4-0.2,3.5,2.6,3,5.5c-0.2,1.1-0.9,2.2-1.3,2.2
					C602.1,219.4,602.3,218.2,602,216.4z"/>
			</g>
			<g>
				<rect x="574.7" y="272.1" class="st3" width="2.6" height="3.8"/>
				<rect x="574.7" y="218.6" class="st3" width="2.6" height="30.4"/>
				
					<ellipse transform="matrix(0.4491 -0.8935 0.8935 0.4491 96.045 657.1047)" class="st4" cx="580.9" cy="250.7" rx="7.3" ry="2.8"/>
				
					<ellipse transform="matrix(0.9826 -0.1857 0.1857 0.9826 -32.8606 110.3628)" class="st4" cx="572.7" cy="230.6" rx="2.8" ry="7.3"/>
				<path class="st3" d="M577.2,272.1c0.1-2.8-0.2-6.6-1.7-10.7c-3.9-10.7-13.3-16.2-13.7-15.8s7.6,5.9,11.1,16.7
					c1.2,3.8,1.6,7.3,1.7,9.9"/>
				<path class="st3" d="M577.6,268.2c5.1-1.8,2.3-15.5,7.7-17.6c1.5-0.6,3.4-0.1,3.4-0.4c0-0.3-2-0.9-3.4-0.9
					c-7,0.5-13.7,15.4-10.7,18.4C575.3,268.4,576.6,268.6,577.6,268.2z"/>
				<rect x="574.7" y="246.4" class="st3" width="2.6" height="16.7"/>
				<path class="st3" d="M575.1,247.2c-2.3-2.2,2-12,9-16.3c1.1-0.7,2.8-1.5,3-1.3c0.2,0.3-3,2-5.1,5.1c-3.9,5.6-1.8,11.9-4.7,12.8
					C576.5,247.9,575.6,247.7,575.1,247.2z"/>
				<path class="st3" d="M574.7,249c-3.1-0.7-2-8.2-6-18c-2.2-5.4-5-9.2-4.7-9.4c0.2-0.2,2.4,2.7,3.8,4.7c2.9,4.1,12.8,18,9.4,21.8
					C576.6,248.8,575.5,249.2,574.7,249z"/>
				<path class="st3" d="M577.2,220.9c-0.3-0.9-0.9-2-1.8-3.1c-2-2.3-4.6-2.9-4.6-2.6c-0.1,0.3,2.8,1.2,3.6,3.9
					c0.2,0.6,0.2,1.4,0.7,1.7C575.7,221.4,576.5,221.1,577.2,220.9z"/>
				<path class="st3" d="M575.5,218c0.2-1.4,1.4-2.2,2.1-2.7c1.7-1.2,3.6-1.2,3.6-0.9c0.1,0.4-1.8,0.8-3.1,2.8
					c-0.9,1.5-0.7,2.8-1.3,3C576.2,220.6,575.3,219.3,575.5,218z"/>
				<path class="st3" d="M575.1,216.4c-0.4-3.1-1.5-4.6-1.3-4.7c0.4-0.2,3.5,2.6,3,5.5c-0.2,1.1-0.9,2.2-1.3,2.2
					C575.2,219.4,575.3,218.2,575.1,216.4z"/>
			</g>
			<g>
				<rect x="588.3" y="272.1" class="st3" width="2.6" height="3.8"/>
				<rect x="588.3" y="218.6" class="st3" width="2.6" height="30.4"/>
				
					<ellipse transform="matrix(0.4491 -0.8935 0.8935 0.4491 103.6343 669.3756)" class="st4" cx="594.6" cy="250.6" rx="7.3" ry="2.8"/>
				
					<ellipse transform="matrix(0.9826 -0.1857 0.1857 0.9826 -32.6056 112.9023)" class="st4" cx="586.4" cy="230.5" rx="2.8" ry="7.3"/>
				<path class="st3" d="M590.9,272.1c0.1-2.8-0.2-6.6-1.7-10.7c-3.9-10.7-13.3-16.2-13.7-15.8s7.6,5.9,11.1,16.7
					c1.2,3.8,1.6,7.3,1.7,9.9"/>
				<path class="st3" d="M591.3,268.2c5.1-1.8,2.3-15.5,7.7-17.6c1.5-0.6,3.4-0.1,3.4-0.4c0-0.3-2-0.9-3.4-0.9
					c-7,0.5-13.7,15.4-10.7,18.4C589,268.4,590.3,268.6,591.3,268.2z"/>
				<rect x="588.3" y="246.4" class="st3" width="2.6" height="16.7"/>
				<path class="st3" d="M588.8,247.2c-2.3-2.2,2-12,9-16.3c1.1-0.7,2.8-1.5,3-1.3c0.2,0.3-3,2-5.1,5.1c-3.9,5.6-1.8,11.9-4.7,12.8
					C590.2,247.9,589.3,247.7,588.8,247.2z"/>
				<path class="st3" d="M588.3,249c-3.1-0.7-2-8.2-6-18c-2.2-5.4-5-9.2-4.7-9.4c0.2-0.2,2.4,2.7,3.8,4.7c2.9,4.1,12.8,18,9.4,21.8
					C590.3,248.8,589.2,249.2,588.3,249z"/>
				<path class="st3" d="M590.9,220.9c-0.3-0.9-0.9-2-1.8-3.1c-2-2.3-4.6-2.9-4.6-2.6c-0.1,0.3,2.8,1.2,3.6,3.9
					c0.2,0.6,0.2,1.4,0.7,1.7C589.4,221.4,590.3,221.1,590.9,220.9z"/>
				<path class="st3" d="M589.1,218c0.2-1.4,1.4-2.2,2.1-2.7c1.7-1.2,3.6-1.2,3.6-0.9c0.1,0.4-1.8,0.8-3.1,2.8
					c-0.9,1.5-0.7,2.8-1.3,3C589.9,220.6,589,219.3,589.1,218z"/>
				<path class="st3" d="M588.8,216.4c-0.4-3.1-1.5-4.6-1.3-4.7c0.4-0.2,3.5,2.6,3,5.5c-0.2,1.1-0.9,2.2-1.3,2.2
					C588.8,219.4,589,218.2,588.8,216.4z"/>
			</g>
			<g>
				<rect x="561" y="272.1" class="st3" width="2.6" height="3.8"/>
				<rect x="561" y="218.6" class="st3" width="2.6" height="30.4"/>
				
					<ellipse transform="matrix(0.4491 -0.8935 0.8935 0.4491 88.4962 644.8884)" class="st4" cx="567.2" cy="250.7" rx="7.3" ry="2.8"/>
				
					<ellipse transform="matrix(0.9826 -0.1857 0.1857 0.9826 -33.0998 107.8189)" class="st4" cx="559" cy="230.6" rx="2.8" ry="7.3"/>
				<path class="st3" d="M563.5,272.1c0.1-2.8-0.2-6.6-1.7-10.7c-3.9-10.7-13.3-16.2-13.7-15.8s7.6,5.9,11.1,16.7
					c1.2,3.8,1.6,7.3,1.7,9.9"/>
				<path class="st3" d="M563.9,268.2c5.1-1.8,2.3-15.5,7.7-17.6c1.5-0.6,3.4-0.1,3.4-0.4c0-0.3-2-0.9-3.4-0.9
					c-7,0.5-13.7,15.4-10.7,18.4C561.7,268.4,563,268.6,563.9,268.2z"/>
				<rect x="561" y="246.4" class="st3" width="2.6" height="16.7"/>
				<path class="st3" d="M561.4,247.2c-2.3-2.2,2-12,9-16.3c1.1-0.7,2.8-1.5,3-1.3c0.2,0.3-3,2-5.1,5.1c-3.9,5.6-1.8,11.9-4.7,12.8
					C562.8,247.9,561.9,247.7,561.4,247.2z"/>
				<path class="st3" d="M561,249c-3.1-0.7-2-8.2-6-18c-2.2-5.4-5-9.2-4.7-9.4c0.2-0.2,2.4,2.7,3.8,4.7c2.9,4.1,12.8,18,9.4,21.8
					C562.9,248.8,561.9,249.2,561,249z"/>
				<path class="st3" d="M563.5,220.9c-0.3-0.9-0.9-2-1.8-3.1c-2-2.3-4.6-2.9-4.6-2.6c-0.1,0.3,2.8,1.2,3.6,3.9
					c0.2,0.6,0.2,1.4,0.7,1.7C562,221.4,562.8,221.1,563.5,220.9z"/>
				<path class="st3" d="M561.8,218c0.2-1.4,1.4-2.2,2.1-2.7c1.7-1.2,3.6-1.2,3.6-0.9c0.1,0.4-1.8,0.8-3.1,2.8
					c-0.9,1.5-0.7,2.8-1.3,3C562.5,220.6,561.6,219.3,561.8,218z"/>
				<path class="st3" d="M561.4,216.4c-0.4-3.1-1.5-4.6-1.3-4.7c0.4-0.2,3.5,2.6,3,5.5c-0.2,1.1-0.9,2.2-1.3,2.2
					C561.5,219.4,561.6,218.2,561.4,216.4z"/>
			</g>
		</g>
	</g>
</g>
<g id="Layer_3">
</g>
</svg>
